<?xml version="1.0" encoding="utf-8"?>
<!-- Generator: Adobe Illustrator 23.1.1, SVG Export Plug-In . SVG Version: 6.00 Build 0)  -->
<svg version="1.1" id="Ebene_1" xmlns="http://www.w3.org/2000/svg" xmlns:xlink="http://www.w3.org/1999/xlink" x="0px" y="0px"
	 viewBox="0 0 435 248" style="enable-background:new 0 0 435 248;" xml:space="preserve">
<style type="text/css">
	.st0{fill:#7AC943;}
	.st1{opacity:0.6;fill:#FBB03B;}
	.st2{fill:#ED1C24;}
	.st3{fill:none;stroke:#000000;stroke-width:3;stroke-miterlimit:10;}
</style>
<path class="st0" d="M160.44,131.67l-56.57-77.3c-8.49,6.14-16.51,12.97-24.02,20.48c-18.14,18.14-32.38,39.26-42.33,62.78
	C27.22,161.97,22,187.84,22,214.5c0,1.17,0.02,2.33,0.04,3.5h99.24c-0.19-2.48-0.28-4.98-0.28-7.5
	C121,178.26,136.49,149.63,160.44,131.67z"/>
<path class="st1" d="M335.05,54.31c-12-8.67-24.92-15.97-38.68-21.79C272.03,22.22,246.16,17,219.5,17s-52.53,5.22-76.88,15.52
	c-12.81,5.42-24.9,12.12-36.19,20.01L163,129.81c16-11.22,35.48-17.81,56.5-17.81c22.51,0,43.25,7.56,59.84,20.26L335.05,54.31z"/>
<path class="st2" d="M401.48,137.62c-9.95-23.52-24.19-44.64-42.33-62.78c-6.77-6.77-13.96-13-21.53-18.66l-55.78,78.05
	C303.91,152.3,318,179.76,318,210.5c0,2.52-0.1,5.02-0.28,7.5h99.24c0.02-1.17,0.04-2.33,0.04-3.5
	C417,187.84,411.78,161.97,401.48,137.62z"/>
<path d="M22,214.5c0-26.66,5.22-52.53,15.52-76.88c9.95-23.52,24.19-44.64,42.33-62.78c18.14-18.14,39.26-32.38,62.78-42.33
	C166.97,22.22,192.84,17,219.5,17s52.53,5.22,76.88,15.52c23.52,9.95,44.64,24.19,62.78,42.33c18.14,18.14,32.38,39.26,42.33,62.78
	c10.3,24.35,15.52,50.21,15.52,76.88c0,1.17-0.02,2.33-0.04,3.5h3c0.02-1.17,0.04-2.33,0.04-3.5C420,103.77,330.23,14,219.5,14
	S19,103.77,19,214.5c0,1.17,0.02,2.33,0.04,3.5h3C22.02,216.83,22,215.67,22,214.5z"/>
<path d="M121.65,210.51c0-54.13,44.04-98.17,98.17-98.17c54.13,0,98.17,44.04,98.17,98.17c0,2.86-0.13,5.69-0.37,8.49h3.01
	c0.23-2.8,0.36-5.63,0.36-8.49c0-55.88-45.3-101.17-101.17-101.17c-55.88,0-101.17,45.3-101.17,101.17c0,2.86,0.13,5.69,0.36,8.49
	h3.01C121.78,216.2,121.65,213.37,121.65,210.51z"/>
<line class="st3" x1="19" y1="218" x2="119" y2="218"/>
<line class="st3" x1="317.5" y1="219.5" x2="419.5" y2="218.5"/>
<rect x="262.28" y="90.21" transform="matrix(0.5832 -0.8123 0.8123 0.5832 54.8229 290.2784)" width="96.02" height="3"/>
<rect x="130.93" y="43.23" transform="matrix(0.8051 -0.5931 0.5931 0.8051 -28.3066 96.3325)" width="3" height="96.02"/>
<circle cx="223.5" cy="215.5" r="13.5"/>
<polygon points="220,207 327,121 230,223 "/>
</svg>
